<?xml version="1.0" encoding="UTF-8" standalone="no"?>
<svg
   width="414.68875"
   zoomAndPan="magnify"
   viewBox="0 0 311.01656 150"
   height="200"
   preserveAspectRatio="xMidYMid meet"
   version="1.0"
   id="svg316"
   sodipodi:docname="full_logo_dark_mode.svg"
   inkscape:version="1.1.2 (0a00cf5339, 2022-02-04)"
   xmlns:inkscape="http://www.inkscape.org/namespaces/inkscape"
   xmlns:sodipodi="http://sodipodi.sourceforge.net/DTD/sodipodi-0.dtd"
   xmlns="http://www.w3.org/2000/svg"
   xmlns:svg="http://www.w3.org/2000/svg">
  <sodipodi:namedview
     id="namedview318"
     pagecolor="#ffffff"
     bordercolor="#999999"
     borderopacity="1"
     inkscape:pageshadow="0"
     inkscape:pageopacity="0"
     inkscape:pagecheckerboard="0"
     showgrid="false"
     inkscape:zoom="0.32"
     inkscape:cx="265.625"
     inkscape:cy="175"
     inkscape:window-width="951"
     inkscape:window-height="1045"
     inkscape:window-x="5"
     inkscape:window-y="28"
     inkscape:window-maximized="1"
     inkscape:current-layer="svg316"
     fit-margin-top="0"
     fit-margin-left="0"
     fit-margin-right="0"
     fit-margin-bottom="0" />
  <defs
     id="defs144">
    <g
       id="g2" />
    <clipPath
       id="b389d67584">
      <path
         d="m 212,195.89844 h 84 v 5.25 h -84 z m 0,0"
         clip-rule="nonzero"
         id="path4" />
    </clipPath>
    <clipPath
       id="05443dafa0">
      <path
         d="M 25.816406,120.89844 H 151.81641 v 150 H 25.816406 Z m 0,0"
         clip-rule="nonzero"
         id="path7" />
    </clipPath>
    <clipPath
       id="23fe9b21cd">
      <path
         d="m 88.683594,270.89844 h -0.08594 c -0.175781,0 -0.441406,-0.0899 -0.617187,-0.0899 l -0.08594,-0.0859 c -0.175781,0 -0.351562,-0.0899 -0.53125,-0.17579 0,-0.0898 -0.08594,-0.0898 -0.175781,-0.17578 L 27.347656,234.34375 c -0.441406,-0.26563 -0.882812,-0.61719 -1.058594,-1.14453 -0.261718,-0.52735 -0.351562,-1.05469 -0.261718,-1.49219 v -71.26562 c -0.175782,-0.79297 -0.08984,-1.4961 0.351562,-2.02344 0.175782,-0.4375 0.527344,-0.78906 0.878906,-1.05078 L 87.363281,121.25 c 0.08984,0 0.08984,0 0.179688,-0.0898 0.261719,-0.0859 0.527343,-0.17578 0.878906,-0.26172 h 0.617187 c 0.261719,0.0859 0.613282,0.17578 0.878907,0.26172 0.08594,0.0898 0.08594,0.0898 0.175781,0.0898 l 60.10547,36.11719 c 0.17578,0.17578 0.35156,0.35156 0.52734,0.52734 0.61719,0.61328 0.88281,1.57813 0.70703,2.45703 v 6.15235 c 0.17578,0.52734 0.17578,1.05468 0,1.58203 v 62.74218 c 0.35157,0.70313 0.35157,1.58204 0,2.3711 -0.4414,0.61719 -0.96875,0.96875 -1.49609,1.23047 l -59.226562,35.58984 c -0.53125,0.61328 -1.144532,0.78906 -1.851563,0.87891 z M 86.046875,143.12891 v -14.85157 l -41.628906,24.95703 z m 5.367187,-14.85157 v 14.76563 L 132.6875,153.05859 Z M 88.683594,264.30859 125.29688,226.08203 H 51.988281 Z m 43.476566,-37.60937 -27.8086,28.99609 38.98438,-23.46094 z m -59.140629,28.99609 -27.808593,-28.99609 -11.175782,5.53515 z m 57.820309,-38.83984 15.3125,-49.5586 v -5.53906 L 93.878906,149.01562 Z m 15.3125,-31.72266 -11.4414,36.90625 11.4414,5.625 z M 42.570312,222.03906 31.304688,184.95703 v 42.79688 z m -11.265624,-55.09375 15.136718,49.82422 37.050782,-67.57812 -52.1875,12.65625 z m 95.750002,53.86328 -38.281252,-70.21093 -38.457032,70.21093 z m 0,0"
         clip-rule="nonzero"
         id="path10" />
    </clipPath>
    <linearGradient
       x1="138"
       gradientTransform="matrix(0.0880044,0,0,0.0878735,13.705445,120.89786)"
       y1="853.33502"
       x2="1569"
       gradientUnits="userSpaceOnUse"
       y2="853.33502"
       id="474cfb4da2">
      <stop
         stop-opacity="1"
         stop-color="rgb(19.999695%, 39.99939%, 39.99939%)"
         offset="0"
         id="stop13" />
      <stop
         stop-opacity="1"
         stop-color="rgb(19.850159%, 39.849854%, 39.849854%)"
         offset="0.015625"
         id="stop15" />
      <stop
         stop-opacity="1"
         stop-color="rgb(19.543457%, 39.543152%, 39.543152%)"
         offset="0.03125"
         id="stop17" />
      <stop
         stop-opacity="1"
         stop-color="rgb(19.230652%, 39.230347%, 39.230347%)"
         offset="0.046875"
         id="stop19" />
      <stop
         stop-opacity="1"
         stop-color="rgb(18.916321%, 38.917542%, 38.917542%)"
         offset="0.0625"
         id="stop21" />
      <stop
         stop-opacity="1"
         stop-color="rgb(18.603516%, 38.60321%, 38.60321%)"
         offset="0.078125"
         id="stop23" />
      <stop
         stop-opacity="1"
         stop-color="rgb(18.29071%, 38.290405%, 38.290405%)"
         offset="0.09375"
         id="stop25" />
      <stop
         stop-opacity="1"
         stop-color="rgb(17.977905%, 37.9776%, 37.9776%)"
         offset="0.109375"
         id="stop27" />
      <stop
         stop-opacity="1"
         stop-color="rgb(17.6651%, 37.664795%, 37.664795%)"
         offset="0.125"
         id="stop29" />
      <stop
         stop-opacity="1"
         stop-color="rgb(17.352295%, 37.35199%, 37.35199%)"
         offset="0.140625"
         id="stop31" />
      <stop
         stop-opacity="1"
         stop-color="rgb(17.03949%, 37.039185%, 37.039185%)"
         offset="0.15625"
         id="stop33" />
      <stop
         stop-opacity="1"
         stop-color="rgb(16.725159%, 36.726379%, 36.726379%)"
         offset="0.171875"
         id="stop35" />
      <stop
         stop-opacity="1"
         stop-color="rgb(16.412354%, 36.413574%, 36.413574%)"
         offset="0.1875"
         id="stop37" />
      <stop
         stop-opacity="1"
         stop-color="rgb(16.099548%, 36.099243%, 36.099243%)"
         offset="0.203125"
         id="stop39" />
      <stop
         stop-opacity="1"
         stop-color="rgb(15.786743%, 35.786438%, 35.786438%)"
         offset="0.21875"
         id="stop41" />
      <stop
         stop-opacity="1"
         stop-color="rgb(15.473938%, 35.473633%, 35.473633%)"
         offset="0.234375"
         id="stop43" />
      <stop
         stop-opacity="1"
         stop-color="rgb(15.161133%, 35.160828%, 35.160828%)"
         offset="0.25"
         id="stop45" />
      <stop
         stop-opacity="1"
         stop-color="rgb(14.848328%, 34.848022%, 34.848022%)"
         offset="0.265625"
         id="stop47" />
      <stop
         stop-opacity="1"
         stop-color="rgb(14.535522%, 34.535217%, 34.535217%)"
         offset="0.28125"
         id="stop49" />
      <stop
         stop-opacity="1"
         stop-color="rgb(14.221191%, 34.222412%, 34.222412%)"
         offset="0.296875"
         id="stop51" />
      <stop
         stop-opacity="1"
         stop-color="rgb(13.908386%, 33.908081%, 33.908081%)"
         offset="0.3125"
         id="stop53" />
      <stop
         stop-opacity="1"
         stop-color="rgb(13.595581%, 33.595276%, 33.595276%)"
         offset="0.328125"
         id="stop55" />
      <stop
         stop-opacity="1"
         stop-color="rgb(13.282776%, 33.282471%, 33.282471%)"
         offset="0.34375"
         id="stop57" />
      <stop
         stop-opacity="1"
         stop-color="rgb(12.969971%, 32.969666%, 32.969666%)"
         offset="0.359375"
         id="stop59" />
      <stop
         stop-opacity="1"
         stop-color="rgb(12.657166%, 32.65686%, 32.65686%)"
         offset="0.375"
         id="stop61" />
      <stop
         stop-opacity="1"
         stop-color="rgb(12.34436%, 32.344055%, 32.344055%)"
         offset="0.390625"
         id="stop63" />
      <stop
         stop-opacity="1"
         stop-color="rgb(12.030029%, 32.03125%, 32.03125%)"
         offset="0.40625"
         id="stop65" />
      <stop
         stop-opacity="1"
         stop-color="rgb(11.717224%, 31.718445%, 31.718445%)"
         offset="0.421875"
         id="stop67" />
      <stop
         stop-opacity="1"
         stop-color="rgb(11.404419%, 31.404114%, 31.404114%)"
         offset="0.4375"
         id="stop69" />
      <stop
         stop-opacity="1"
         stop-color="rgb(11.091614%, 31.091309%, 31.091309%)"
         offset="0.453125"
         id="stop71" />
      <stop
         stop-opacity="1"
         stop-color="rgb(10.778809%, 30.778503%, 30.778503%)"
         offset="0.46875"
         id="stop73" />
      <stop
         stop-opacity="1"
         stop-color="rgb(10.466003%, 30.465698%, 30.465698%)"
         offset="0.484375"
         id="stop75" />
      <stop
         stop-opacity="1"
         stop-color="rgb(10.153198%, 30.152893%, 30.152893%)"
         offset="0.5"
         id="stop77" />
      <stop
         stop-opacity="1"
         stop-color="rgb(9.840393%, 29.840088%, 29.840088%)"
         offset="0.515625"
         id="stop79" />
      <stop
         stop-opacity="1"
         stop-color="rgb(9.526062%, 29.527283%, 29.527283%)"
         offset="0.53125"
         id="stop81" />
      <stop
         stop-opacity="1"
         stop-color="rgb(9.213257%, 29.212952%, 29.212952%)"
         offset="0.546875"
         id="stop83" />
      <stop
         stop-opacity="1"
         stop-color="rgb(8.900452%, 28.900146%, 28.900146%)"
         offset="0.5625"
         id="stop85" />
      <stop
         stop-opacity="1"
         stop-color="rgb(8.587646%, 28.587341%, 28.587341%)"
         offset="0.578125"
         id="stop87" />
      <stop
         stop-opacity="1"
         stop-color="rgb(8.274841%, 28.274536%, 28.274536%)"
         offset="0.59375"
         id="stop89" />
      <stop
         stop-opacity="1"
         stop-color="rgb(7.962036%, 27.961731%, 27.961731%)"
         offset="0.609375"
         id="stop91" />
      <stop
         stop-opacity="1"
         stop-color="rgb(7.649231%, 27.648926%, 27.648926%)"
         offset="0.625"
         id="stop93" />
      <stop
         stop-opacity="1"
         stop-color="rgb(7.3349%, 27.336121%, 27.336121%)"
         offset="0.640625"
         id="stop95" />
      <stop
         stop-opacity="1"
         stop-color="rgb(7.022095%, 27.023315%, 27.023315%)"
         offset="0.65625"
         id="stop97" />
      <stop
         stop-opacity="1"
         stop-color="rgb(6.70929%, 26.708984%, 26.708984%)"
         offset="0.671875"
         id="stop99" />
      <stop
         stop-opacity="1"
         stop-color="rgb(6.396484%, 26.396179%, 26.396179%)"
         offset="0.6875"
         id="stop101" />
      <stop
         stop-opacity="1"
         stop-color="rgb(6.083679%, 26.083374%, 26.083374%)"
         offset="0.703125"
         id="stop103" />
      <stop
         stop-opacity="1"
         stop-color="rgb(5.770874%, 25.770569%, 25.770569%)"
         offset="0.71875"
         id="stop105" />
      <stop
         stop-opacity="1"
         stop-color="rgb(5.458069%, 25.457764%, 25.457764%)"
         offset="0.734375"
         id="stop107" />
      <stop
         stop-opacity="1"
         stop-color="rgb(5.145264%, 25.144958%, 25.144958%)"
         offset="0.75"
         id="stop109" />
      <stop
         stop-opacity="1"
         stop-color="rgb(4.830933%, 24.832153%, 24.832153%)"
         offset="0.75"
         id="stop111" />
      <stop
         stop-opacity="1"
         stop-color="rgb(4.518127%, 24.517822%, 24.517822%)"
         offset="0.78125"
         id="stop113" />
      <stop
         stop-opacity="1"
         stop-color="rgb(4.205322%, 24.205017%, 24.205017%)"
         offset="0.796875"
         id="stop115" />
      <stop
         stop-opacity="1"
         stop-color="rgb(3.892517%, 23.892212%, 23.892212%)"
         offset="0.8125"
         id="stop117" />
      <stop
         stop-opacity="1"
         stop-color="rgb(3.579712%, 23.579407%, 23.579407%)"
         offset="0.828125"
         id="stop119" />
      <stop
         stop-opacity="1"
         stop-color="rgb(3.266907%, 23.266602%, 23.266602%)"
         offset="0.84375"
         id="stop121" />
      <stop
         stop-opacity="1"
         stop-color="rgb(2.954102%, 22.953796%, 22.953796%)"
         offset="0.859375"
         id="stop123" />
      <stop
         stop-opacity="1"
         stop-color="rgb(2.639771%, 22.640991%, 22.640991%)"
         offset="0.875"
         id="stop125" />
      <stop
         stop-opacity="1"
         stop-color="rgb(2.326965%, 22.328186%, 22.328186%)"
         offset="0.890625"
         id="stop127" />
      <stop
         stop-opacity="1"
         stop-color="rgb(2.01416%, 22.013855%, 22.013855%)"
         offset="0.90625"
         id="stop129" />
      <stop
         stop-opacity="1"
         stop-color="rgb(1.701355%, 21.70105%, 21.70105%)"
         offset="0.921875"
         id="stop131" />
      <stop
         stop-opacity="1"
         stop-color="rgb(1.38855%, 21.388245%, 21.388245%)"
         offset="0.9375"
         id="stop133" />
      <stop
         stop-opacity="1"
         stop-color="rgb(1.075745%, 21.075439%, 21.075439%)"
         offset="0.953125"
         id="stop135" />
      <stop
         stop-opacity="1"
         stop-color="rgb(0.762939%, 20.762634%, 20.762634%)"
         offset="0.96875"
         id="stop137" />
      <stop
         stop-opacity="1"
         stop-color="rgb(0.450134%, 20.449829%, 20.449829%)"
         offset="0.984375"
         id="stop139" />
      <stop
         stop-opacity="1"
         stop-color="rgb(0.146484%, 20.146179%, 20.146179%)"
         offset="1"
         id="stop141" />
    </linearGradient>
  </defs>
  <g
     clip-path="url(#b389d67584)"
     id="g152"
     transform="translate(-25.94206,-120.89844)">
    <path
       fill="#800500"
       d="m 292.93359,195.89844 h -77.63672 c -1.53125,0 -2.77343,1.17578 -2.77343,2.625 0,1.44922 1.24218,2.625 2.77343,2.625 h 77.63672 c 1.53125,0 2.77344,-1.17578 2.77344,-2.625 0,-1.44922 -1.24219,-2.625 -2.77344,-2.625 z m 0,0"
       fill-opacity="1"
       fill-rule="nonzero"
       id="path150" />
  </g>
  <g
     id="g5609"
     transform="translate(-25.94206,-120.89844)"
     style="fill:#fefbea;fill-opacity:1">
    <g
       fill="#000000"
       fill-opacity="1"
       id="g166"
       style="fill:#fefbea;fill-opacity:1">
      <g
         transform="translate(176.22084,179.4994)"
         id="g164"
         style="fill:#fefbea;fill-opacity:1">
        <g
           id="g162"
           style="fill:#fefbea;fill-opacity:1">
          <path
             d="m 11.5625,-20.25 c -0.04297,-0.132812 -0.105469,-0.203125 -0.1875,-0.203125 -0.08594,0 -0.148438,0.07031 -0.1875,0.203125 L 6.875,-9.078125 c -0.167969,0.3125 -0.054688,0.46875 0.34375,0.46875 h 8.296875 c 0.375,0 0.488281,-0.15625 0.34375,-0.46875 z m 5.015625,13.03125 c -0.125,-0.289062 -0.375,-0.4375 -0.75,-0.4375 H 6.90625 c -0.375,0 -0.625,0.148438 -0.75,0.4375 l -2.234375,5.8125 c -0.167969,0.3125 -0.0625,0.46875 0.3125,0.46875 H 6.125 c 0.3125,0 0.46875,0.15625 0.46875,0.46875 C 6.59375,-0.15625 6.4375,0 6.125,0 H 0.15625 c -0.3125,0 -0.46875,-0.15625 -0.46875,-0.46875 0,-0.3125 0.15625,-0.46875 0.46875,-0.46875 h 2.046875 c 0.25,0 0.457031,-0.15625 0.625,-0.46875 l 7.84375,-20.421875 c 0.08203,-0.3125 0.3125,-0.46875 0.6875,-0.46875 0.382813,0 0.617187,0.15625 0.703125,0.46875 l 7.84375,20.421875 c 0.144531,0.3125 0.359375,0.46875 0.640625,0.46875 h 2.03125 c 0.3125,0 0.46875,0.15625 0.46875,0.46875 0,0.3125 -0.15625,0.46875 -0.46875,0.46875 h -5.96875 c -0.3125,0 -0.46875,-0.15625 -0.46875,-0.46875 0,-0.3125 0.15625,-0.46875 0.46875,-0.46875 H 18.5 c 0.351562,0 0.457031,-0.15625 0.3125,-0.46875 z m 0,0"
             id="path160"
             style="fill:#fefbea;fill-opacity:1" />
        </g>
      </g>
    </g>
    <g
       fill="#000000"
       fill-opacity="1"
       id="g174"
       style="fill:#fefbea;fill-opacity:1">
      <g
         transform="translate(198.9616,179.4994)"
         id="g172"
         style="fill:#fefbea;fill-opacity:1">
        <g
           id="g170"
           style="fill:#fefbea;fill-opacity:1">
          <path
             d="m 13.0625,-15.078125 c -2.636719,0 -4.835938,1.039063 -6.59375,3.109375 -0.5,0.585938 -0.917969,1.171875 -1.25,1.765625 v 8.796875 c 0,0.3125 0.15625,0.46875 0.46875,0.46875 h 2.515625 c 0.3125,0 0.46875,0.15625 0.46875,0.46875 C 8.671875,-0.15625 8.515625,0 8.203125,0 H 1.609375 C 1.285156,0 1.125,-0.15625 1.125,-0.46875 c 0,-0.3125 0.160156,-0.46875 0.484375,-0.46875 h 2.1875 c 0.3125,0 0.46875,-0.15625 0.46875,-0.46875 v -12.890625 c 0,-0.3125 -0.15625,-0.46875 -0.46875,-0.46875 h -2.1875 c -0.324219,0 -0.484375,-0.15625 -0.484375,-0.46875 0,-0.3125 0.160156,-0.46875 0.484375,-0.46875 H 4.75 c 0.3125,0 0.46875,0.15625 0.46875,0.46875 V -12.75 c 0,0.523438 0.21875,0.53125 0.65625,0.03125 0.769531,-0.875 1.773438,-1.640625 3.015625,-2.296875 1.25,-0.664063 2.640625,-1 4.171875,-1 h 1.546875 c 0.3125,0 0.46875,0.15625 0.46875,0.46875 V -11.625 c 0,0.3125 -0.164063,0.46875 -0.484375,0.46875 -0.3125,0 -0.46875,-0.15625 -0.46875,-0.46875 v -2.984375 c 0,-0.3125 -0.15625,-0.46875 -0.46875,-0.46875 z m 0,0"
             id="path168"
             style="fill:#fefbea;fill-opacity:1" />
        </g>
      </g>
    </g>
    <g
       fill="#000000"
       fill-opacity="1"
       id="g182"
       style="fill:#fefbea;fill-opacity:1">
      <g
         transform="translate(214.88642,179.4994)"
         id="g180"
         style="fill:#fefbea;fill-opacity:1">
        <g
           id="g178"
           style="fill:#fefbea;fill-opacity:1">
          <path
             d="m 1.0625,-0.9375 h 2.203125 c 0.3125,0 0.46875,-0.15625 0.46875,-0.46875 v -19.171875 c 0,-0.3125 -0.15625,-0.46875 -0.46875,-0.46875 H 1.0625 c -0.3125,0 -0.46875,-0.15625 -0.46875,-0.46875 0,-0.3125 0.15625,-0.46875 0.46875,-0.46875 h 3.140625 c 0.3125,0 0.46875,0.15625 0.46875,0.46875 V -6.0625 l 7.546875,-8.234375 c 0.125,-0.101563 0.171875,-0.207031 0.140625,-0.3125 -0.03125,-0.101563 -0.132813,-0.15625 -0.296875,-0.15625 h -1.765625 c -0.3125,0 -0.46875,-0.15625 -0.46875,-0.46875 0,-0.3125 0.15625,-0.46875 0.46875,-0.46875 h 6.15625 c 0.3125,0 0.46875,0.15625 0.46875,0.46875 0,0.3125 -0.15625,0.46875 -0.46875,0.46875 h -2 c -0.242187,0 -0.515625,0.15625 -0.828125,0.46875 l -4.703125,5.125 5.65625,7.765625 c 0.269531,0.3125 0.53125,0.46875 0.78125,0.46875 h 2.046875 c 0.3125,0 0.46875,0.15625 0.46875,0.46875 C 17.875,-0.15625 17.71875,0 17.40625,0 H 11.4375 c -0.324219,0 -0.484375,-0.15625 -0.484375,-0.46875 0,-0.3125 0.160156,-0.46875 0.484375,-0.46875 h 1.71875 c 0.375,0 0.425781,-0.15625 0.15625,-0.46875 l -5.078125,-7.015625 -3.5625,3.90625 v 3.109375 c 0,0.3125 0.160156,0.46875 0.484375,0.46875 h 1.875 C 7.34375,-0.9375 7.5,-0.78125 7.5,-0.46875 7.5,-0.15625 7.34375,0 7.03125,0 H 1.0625 C 0.75,0 0.59375,-0.15625 0.59375,-0.46875 0.59375,-0.78125 0.75,-0.9375 1.0625,-0.9375 Z m 0,0"
             id="path176"
             style="fill:#fefbea;fill-opacity:1" />
        </g>
      </g>
    </g>
    <g
       fill="#000000"
       fill-opacity="1"
       id="g190"
       style="fill:#fefbea;fill-opacity:1">
      <g
         transform="translate(233.13557,179.4994)"
         id="g188"
         style="fill:#fefbea;fill-opacity:1">
        <g
           id="g186"
           style="fill:#fefbea;fill-opacity:1">
          <path
             d="m 13.21875,-7.6875 c 0,-0.320312 -0.15625,-0.484375 -0.46875,-0.484375 H 7.5625 c -1.8125,0 -3.15625,0.359375 -4.03125,1.078125 -0.867188,0.710938 -1.296875,1.617188 -1.296875,2.71875 0,1.09375 0.398437,1.996094 1.203125,2.703125 0.800781,0.699219 2.019531,1.046875 3.65625,1.046875 2.03125,0 3.820312,-1.023438 5.375,-3.078125 0.269531,-0.351563 0.519531,-0.742187 0.75,-1.171875 z m -4.890625,-8.328125 c 1.75,0 3.160156,0.5 4.234375,1.5 1.070312,0.992187 1.609375,2.21875 1.609375,3.6875 v 9.421875 c 0,0.3125 0.15625,0.46875 0.46875,0.46875 h 2.1875 c 0.320313,0 0.484375,0.15625 0.484375,0.46875 C 17.3125,-0.15625 17.148438,0 16.828125,0 H 13.6875 C 13.375,0 13.21875,-0.15625 13.21875,-0.46875 v -1.765625 c 0,-0.207031 -0.04297,-0.351563 -0.125,-0.4375 -0.08594,-0.082031 -0.210938,-0.039063 -0.375,0.125 -0.5625,0.71875 -1.351562,1.375 -2.359375,1.96875 -1,0.59375 -2.046875,0.890625 -3.140625,0.890625 -1.949219,0 -3.429688,-0.429688 -4.4375,-1.296875 -1,-0.875 -1.5,-2 -1.5,-3.375 0,-1.382813 0.578125,-2.519531 1.734375,-3.40625 1.15625,-0.894531 2.671875,-1.34375 4.546875,-1.34375 H 12.75 c 0.3125,0 0.46875,-0.15625 0.46875,-0.46875 v -1.25 c 0,-1.21875 -0.464844,-2.226563 -1.390625,-3.03125 -0.917969,-0.8125 -2.046875,-1.21875 -3.390625,-1.21875 -1.335938,0 -2.433594,0.1875 -3.296875,0.5625 C 4.285156,-14.148438 3.6875,-13.832031 3.34375,-13.5625 3,-13.289062 2.738281,-13.28125 2.5625,-13.53125 c -0.179688,-0.25 -0.152344,-0.460938 0.078125,-0.640625 1.507813,-1.226563 3.40625,-1.84375 5.6875,-1.84375 z m 0,0"
             id="path184"
             style="fill:#fefbea;fill-opacity:1" />
        </g>
      </g>
    </g>
    <g
       fill="#000000"
       fill-opacity="1"
       id="g198"
       style="fill:#fefbea;fill-opacity:1">
      <g
         transform="translate(251.10203,179.4994)"
         id="g196"
         style="fill:#fefbea;fill-opacity:1">
        <g
           id="g194"
           style="fill:#fefbea;fill-opacity:1">
          <path
             d="m 1.609375,-0.9375 h 2.1875 c 0.3125,0 0.46875,-0.15625 0.46875,-0.46875 v -12.890625 c 0,-0.3125 -0.15625,-0.46875 -0.46875,-0.46875 h -2.1875 c -0.324219,0 -0.484375,-0.15625 -0.484375,-0.46875 0,-0.3125 0.160156,-0.46875 0.484375,-0.46875 H 4.75 c 0.3125,0 0.46875,0.15625 0.46875,0.46875 v 1.765625 c 0,0.210938 0.039062,0.355469 0.125,0.4375 0.082031,0.08594 0.207031,0.04297 0.375,-0.125 1.695312,-1.90625 3.539062,-2.859375 5.53125,-2.859375 1.988281,0 3.519531,0.542969 4.59375,1.625 1.082031,1.074219 1.625,2.625 1.625,4.65625 v 8.328125 c 0,0.3125 0.15625,0.46875 0.46875,0.46875 h 2.1875 c 0.320312,0 0.484375,0.15625 0.484375,0.46875 C 20.609375,-0.15625 20.445312,0 20.125,0 H 14.171875 C 13.847656,0 13.6875,-0.15625 13.6875,-0.46875 c 0,-0.3125 0.160156,-0.46875 0.484375,-0.46875 h 1.875 c 0.3125,0 0.46875,-0.15625 0.46875,-0.46875 v -8.328125 c 0,-1.78125 -0.464844,-3.113281 -1.390625,-4 -0.917969,-0.894531 -2.171875,-1.34375 -3.765625,-1.34375 -1.585937,0 -3.089844,0.714844 -4.515625,2.140625 -0.625,0.625 -1.167969,1.328125 -1.625,2.109375 v 9.421875 c 0,0.3125 0.15625,0.46875 0.46875,0.46875 h 1.875 c 0.320312,0 0.484375,0.15625 0.484375,0.46875 C 8.046875,-0.15625 7.882812,0 7.5625,0 H 1.609375 C 1.285156,0 1.125,-0.15625 1.125,-0.46875 c 0,-0.3125 0.160156,-0.46875 0.484375,-0.46875 z m 0,0"
             id="path192"
             style="fill:#fefbea;fill-opacity:1" />
        </g>
      </g>
    </g>
    <g
       fill="#000000"
       fill-opacity="1"
       id="g206"
       style="fill:#fefbea;fill-opacity:1">
      <g
         transform="translate(272.08384,179.4994)"
         id="g204"
         style="fill:#fefbea;fill-opacity:1">
        <g
           id="g202"
           style="fill:#fefbea;fill-opacity:1">
          <path
             d="m 11.78125,-2.203125 c 0.207031,-0.207031 0.394531,-0.226563 0.5625,-0.0625 0.164062,0.167969 0.25,0.304687 0.25,0.40625 0.01953,0.105469 -0.05469,0.246094 -0.21875,0.421875 -0.5,0.5 -1.007812,0.875 -1.515625,1.125 C 9.566406,0.125 8.828125,0.335938 8.640625,0.328125 8.453125,0.316406 8.347656,0.3125 8.328125,0.3125 c -1.46875,0 -2.625,-0.46875 -3.46875,-1.40625 -0.835937,-0.945312 -1.25,-2.3125 -1.25,-4.09375 v -9.109375 c 0,-0.3125 -0.15625,-0.46875 -0.46875,-0.46875 H 0.9375 c -0.3125,0 -0.46875,-0.15625 -0.46875,-0.46875 0,-0.3125 0.15625,-0.46875 0.46875,-0.46875 h 2.203125 c 0.3125,0 0.46875,-0.15625 0.46875,-0.46875 v -5.34375 c 0,-0.3125 0.15625,-0.46875 0.46875,-0.46875 0.3125,0 0.46875,0.15625 0.46875,0.46875 v 5.34375 c 0,0.3125 0.160156,0.46875 0.484375,0.46875 h 5.328125 c 0.3125,0 0.46875,0.15625 0.46875,0.46875 0,0.3125 -0.15625,0.46875 -0.46875,0.46875 H 5.03125 c -0.324219,0 -0.484375,0.15625 -0.484375,0.46875 V -5.1875 c 0,1.511719 0.332031,2.652344 1,3.421875 0.675781,0.761719 1.601563,1.140625 2.78125,1.140625 1.1875,0 2.335937,-0.523438 3.453125,-1.578125 z m 0,0"
             id="path200"
             style="fill:#fefbea;fill-opacity:1" />
        </g>
      </g>
    </g>
    <g
       fill="#000000"
       fill-opacity="1"
       id="g214"
       style="fill:#fefbea;fill-opacity:1">
      <g
         transform="translate(284.74202,179.4994)"
         id="g212"
         style="fill:#fefbea;fill-opacity:1">
        <g
           id="g210"
           style="fill:#fefbea;fill-opacity:1">
          <path
             d="m 1.0625,-0.9375 h 2.203125 c 0.3125,0 0.46875,-0.15625 0.46875,-0.46875 v -19.171875 c 0,-0.3125 -0.15625,-0.46875 -0.46875,-0.46875 H 1.0625 c -0.3125,0 -0.46875,-0.15625 -0.46875,-0.46875 0,-0.3125 0.15625,-0.46875 0.46875,-0.46875 h 3.140625 c 0.3125,0 0.46875,0.15625 0.46875,0.46875 v 8.046875 c 0,0.210938 0.039063,0.355469 0.125,0.4375 0.09375,0.08594 0.222656,0.04297 0.390625,-0.125 1.6875,-1.90625 3.523438,-2.859375 5.515625,-2.859375 1.988281,0 3.519531,0.542969 4.59375,1.625 1.082031,1.074219 1.625,2.625 1.625,4.65625 v 8.328125 c 0,0.3125 0.160156,0.46875 0.484375,0.46875 h 2.1875 c 0.3125,0 0.46875,0.15625 0.46875,0.46875 C 20.0625,-0.15625 19.90625,0 19.59375,0 H 13.625 c -0.3125,0 -0.46875,-0.15625 -0.46875,-0.46875 0,-0.3125 0.15625,-0.46875 0.46875,-0.46875 h 1.890625 c 0.3125,0 0.46875,-0.15625 0.46875,-0.46875 v -8.328125 c 0,-1.78125 -0.464844,-3.113281 -1.390625,-4 -0.917969,-0.894531 -2.171875,-1.34375 -3.765625,-1.34375 -1.585937,0 -3.089844,0.714844 -4.515625,2.140625 -0.605469,0.625 -1.152344,1.328125 -1.640625,2.109375 v 9.421875 c 0,0.3125 0.160156,0.46875 0.484375,0.46875 h 1.875 C 7.34375,-0.9375 7.5,-0.78125 7.5,-0.46875 7.5,-0.15625 7.34375,0 7.03125,0 H 1.0625 C 0.75,0 0.59375,-0.15625 0.59375,-0.46875 0.59375,-0.78125 0.75,-0.9375 1.0625,-0.9375 Z m 0,0"
             id="path208"
             style="fill:#fefbea;fill-opacity:1" />
        </g>
      </g>
    </g>
    <g
       fill="#000000"
       fill-opacity="1"
       id="g222"
       style="fill:#fefbea;fill-opacity:1">
      <g
         transform="translate(305.18986,179.4994)"
         id="g220"
         style="fill:#fefbea;fill-opacity:1">
        <g
           id="g218"
           style="fill:#fefbea;fill-opacity:1">
          <path
             d="M 1.640625,0 C 1.316406,0 1.15625,-0.15625 1.15625,-0.46875 c 0,-0.3125 0.160156,-0.46875 0.484375,-0.46875 h 2.1875 c 0.3125,0 0.46875,-0.15625 0.46875,-0.46875 v -12.890625 c 0,-0.3125 -0.15625,-0.46875 -0.46875,-0.46875 h -2.1875 c -0.324219,0 -0.484375,-0.15625 -0.484375,-0.46875 0,-0.3125 0.160156,-0.46875 0.484375,-0.46875 H 4.78125 c 0.3125,0 0.46875,0.15625 0.46875,0.46875 V -1.40625 c 0,0.3125 0.15625,0.46875 0.46875,0.46875 h 2.203125 c 0.3125,0 0.46875,0.15625 0.46875,0.46875 C 8.390625,-0.15625 8.234375,0 7.921875,0 Z M 3.71875,-18.578125 c -0.242188,-0.238281 -0.359375,-0.535156 -0.359375,-0.890625 0,-0.351562 0.117187,-0.648438 0.359375,-0.890625 0.238281,-0.25 0.535156,-0.375 0.890625,-0.375 0.363281,0 0.664063,0.125 0.90625,0.375 0.238281,0.242187 0.359375,0.539063 0.359375,0.890625 0,0.355469 -0.121094,0.652344 -0.359375,0.890625 -0.242187,0.242187 -0.542969,0.359375 -0.90625,0.359375 -0.355469,0 -0.652344,-0.117188 -0.890625,-0.359375 z m 0,0"
             id="path216"
             style="fill:#fefbea;fill-opacity:1" />
        </g>
      </g>
    </g>
    <g
       fill="#000000"
       fill-opacity="1"
       id="g230"
       style="fill:#fefbea;fill-opacity:1">
      <g
         transform="translate(314.17309,179.4994)"
         id="g228"
         style="fill:#fefbea;fill-opacity:1">
        <g
           id="g226"
           style="fill:#fefbea;fill-opacity:1">
          <path
             d="m 13.21875,-7.6875 c 0,-0.320312 -0.15625,-0.484375 -0.46875,-0.484375 H 7.5625 c -1.8125,0 -3.15625,0.359375 -4.03125,1.078125 -0.867188,0.710938 -1.296875,1.617188 -1.296875,2.71875 0,1.09375 0.398437,1.996094 1.203125,2.703125 0.800781,0.699219 2.019531,1.046875 3.65625,1.046875 2.03125,0 3.820312,-1.023438 5.375,-3.078125 0.269531,-0.351563 0.519531,-0.742187 0.75,-1.171875 z m -4.890625,-8.328125 c 1.75,0 3.160156,0.5 4.234375,1.5 1.070312,0.992187 1.609375,2.21875 1.609375,3.6875 v 9.421875 c 0,0.3125 0.15625,0.46875 0.46875,0.46875 h 2.1875 c 0.320313,0 0.484375,0.15625 0.484375,0.46875 C 17.3125,-0.15625 17.148438,0 16.828125,0 H 13.6875 C 13.375,0 13.21875,-0.15625 13.21875,-0.46875 v -1.765625 c 0,-0.207031 -0.04297,-0.351563 -0.125,-0.4375 -0.08594,-0.082031 -0.210938,-0.039063 -0.375,0.125 -0.5625,0.71875 -1.351562,1.375 -2.359375,1.96875 -1,0.59375 -2.046875,0.890625 -3.140625,0.890625 -1.949219,0 -3.429688,-0.429688 -4.4375,-1.296875 -1,-0.875 -1.5,-2 -1.5,-3.375 0,-1.382813 0.578125,-2.519531 1.734375,-3.40625 1.15625,-0.894531 2.671875,-1.34375 4.546875,-1.34375 H 12.75 c 0.3125,0 0.46875,-0.15625 0.46875,-0.46875 v -1.25 c 0,-1.21875 -0.464844,-2.226563 -1.390625,-3.03125 -0.917969,-0.8125 -2.046875,-1.21875 -3.390625,-1.21875 -1.335938,0 -2.433594,0.1875 -3.296875,0.5625 C 4.285156,-14.148438 3.6875,-13.832031 3.34375,-13.5625 3,-13.289062 2.738281,-13.28125 2.5625,-13.53125 c -0.179688,-0.25 -0.152344,-0.460938 0.078125,-0.640625 1.507813,-1.226563 3.40625,-1.84375 5.6875,-1.84375 z m 0,0"
             id="path224"
             style="fill:#fefbea;fill-opacity:1" />
        </g>
      </g>
    </g>
  </g>
  <g
     clip-path="url(#23fe9b21cd)"
     id="g156"
     style="display:inline"
     inkscape:export-filename="/home/moritz/g156.png"
     inkscape:export-xdpi="250"
     inkscape:export-ydpi="250"
     transform="matrix(1.0000023,0,0,1,-25.942121,-120.89844)">
    <path
       fill="url(#474cfb4da2)"
       d="m 25.851562,120.89844 v 150 H 151.78516 v -150 z m 0,0"
       fill-rule="nonzero"
       id="path154"
       style="display:inline;fill:url(#474cfb4da2)" />
  </g>
  <g
     fill="#000000"
     fill-opacity="1"
     id="g260"
     style="display:none"
     transform="translate(-25.94206,-120.89844)">
    <g
       transform="translate(219.28339,234.55979)"
       id="g258"
       style="display:inline">
      <g
         id="g256"
         style="display:inline" />
    </g>
  </g>
  <g
     fill="#000000"
     fill-opacity="1"
     id="g274"
     style="display:none"
     transform="translate(-25.94206,-120.89844)">
    <g
       transform="translate(248.93348,234.55979)"
       id="g272">
      <g
         id="g270" />
    </g>
  </g>
  <g
     id="g5647"
     transform="translate(-25.94206,-120.89844)"
     style="fill:#fefbea;fill-opacity:1">
    <g
       fill="#000000"
       fill-opacity="1"
       id="g238"
       style="fill:#fefbea;fill-opacity:1">
      <g
         transform="translate(172.77928,234.55979)"
         id="g236"
         style="fill:#fefbea;fill-opacity:1">
        <g
           id="g234"
           style="fill:#fefbea;fill-opacity:1">
          <path
             d="M 2.25,0.046875 1.03125,0 v -6.296875 c 0.082031,-1.351563 0.148438,-2.550781 0.203125,-3.59375 0.0625,-1.050781 0.164063,-1.957031 0.3125,-2.71875 0.144531,-0.757813 0.378906,-1.394531 0.703125,-1.90625 0.320312,-0.507813 0.804688,-0.921875 1.453125,-1.234375 1.175781,-0.570312 3.332031,-0.859375 6.46875,-0.859375 1.351563,0 2.5,0.132813 3.4375,0.390625 0.9375,0.261719 1.628906,0.511719 2.078125,0.75 1.03125,0.5 1.546875,1.203125 1.546875,2.109375 0,0.898437 -0.261719,1.710937 -0.78125,2.4375 -0.511719,0.730469 -1.179687,1.367187 -2,1.90625 -0.8125,0.53125 -1.734375,0.96875 -2.765625,1.3125 -1.03125,0.335937 -2.058594,0.609375 -3.078125,0.828125 -1.84375,0.367188 -3.617187,0.546875 -5.3125,0.546875 l -0.109375,6.0625 c 0,0.2109375 -0.3125,0.3125 -0.9375,0.3125 z m 1.03125,-9.4375 c 0,0.90625 0.382812,1.359375 1.15625,1.359375 0.101562,0 0.289062,-0.00391 0.5625,-0.015625 0.269531,-0.00781 0.742188,-0.035156 1.421875,-0.078125 0.675781,-0.050781 1.394531,-0.144531 2.15625,-0.28125 0.757813,-0.132812 1.519531,-0.304688 2.28125,-0.515625 0.769531,-0.21875 1.460937,-0.488281 2.078125,-0.8125 1.382812,-0.757813 2.078125,-1.726563 2.078125,-2.90625 -0.273437,-1.164063 -1.34375,-1.910156 -3.21875,-2.234375 -0.5625,-0.113281 -1.070313,-0.171875 -1.515625,-0.171875 -0.4375,0 -0.960938,0.02734 -1.5625,0.07813 -0.605469,0.04297 -1.304688,0.183594 -2.09375,0.421875 -0.792969,0.230469 -1.460938,0.542969 -2,0.9375 -0.542969,0.398437 -0.839844,0.855469 -0.890625,1.375 -0.023437,0.21875 -0.070313,0.476563 -0.140625,0.765625 -0.210938,0.917969 -0.3125,1.609375 -0.3125,2.078125 z m 0,0"
             id="path232"
             style="fill:#fefbea;fill-opacity:1" />
        </g>
      </g>
    </g>
    <g
       fill="#000000"
       fill-opacity="1"
       id="g246"
       style="fill:#fefbea;fill-opacity:1">
      <g
         transform="translate(190.44489,234.55979)"
         id="g244"
         style="fill:#fefbea;fill-opacity:1">
        <g
           id="g242"
           style="fill:#fefbea;fill-opacity:1">
          <path
             d="m 6.25,-1.890625 c 1.582031,0 3.972656,-0.722656 7.171875,-2.171875 0.195313,0 0.359375,0.070312 0.484375,0.203125 0.125,0.136719 0.1875,0.296875 0.1875,0.484375 C 13.375,-2.15625 11.992188,-1.203125 9.953125,-0.515625 7.921875,0.171875 6.019531,0.289062 4.25,-0.15625 2.25,-0.6875 1.03125,-1.816406 0.59375,-3.546875 c -0.03125,-0.34375 -0.046875,-0.800781 -0.046875,-1.375 0,-0.582031 0.144531,-1.34375 0.4375,-2.28125 0.300781,-0.945313 0.8125,-1.84375 1.53125,-2.6875 0.71875,-0.851563 1.5625,-1.523437 2.53125,-2.015625 0.976563,-0.488281 2.019531,-0.734375 3.125,-0.734375 1.039063,0 2.210937,0.367187 3.515625,1.09375 0.613281,0.34375 1.097656,0.734375 1.453125,1.171875 0.363281,0.429688 0.546875,0.867188 0.546875,1.3125 0,0.125 -0.01172,0.25 -0.03125,0.375 -0.03125,1.105469 -0.5625,1.804688 -1.59375,2.09375 -0.449219,0.125 -0.96875,0.1875 -1.5625,0.1875 L 6.59375,-6.578125 c -1.292969,0 -2.28125,0.28125 -2.96875,0.84375 -0.398438,0.304687 -0.679688,0.761719 -0.84375,1.375 0.457031,1.648437 1.613281,2.46875 3.46875,2.46875 z M 11.078125,-10.25 C 10.671875,-10.539062 10.25,-10.75 9.8125,-10.875 9.382812,-11 9.023438,-11.0625 8.734375,-11.0625 c -0.28125,0 -0.75,0.09375 -1.40625,0.28125 -0.648437,0.1875 -1.226563,0.402344 -1.734375,0.640625 -1.242188,0.574219 -1.859375,1.179687 -1.859375,1.8125 1.4375,0.125 2.519531,0.1875 3.25,0.1875 2,0 3.347656,-0.171875 4.046875,-0.515625 0.4375,-0.175781 0.65625,-0.398438 0.65625,-0.671875 0,-0.332031 -0.203125,-0.640625 -0.609375,-0.921875 z m 0,0"
             id="path240"
             style="fill:#fefbea;fill-opacity:1" />
        </g>
      </g>
    </g>
    <g
       fill="#000000"
       fill-opacity="1"
       id="g254"
       style="fill:#fefbea;fill-opacity:1">
      <g
         transform="translate(205.43225,234.55979)"
         id="g252"
         style="fill:#fefbea;fill-opacity:1">
        <g
           id="g250"
           style="fill:#fefbea;fill-opacity:1">
          <path
             d="m 11.28125,-5.921875 c 0,-2.144531 -0.117188,-3.722656 -0.34375,-4.734375 0.132812,-0.269531 -0.08594,-0.40625 -0.65625,-0.40625 -0.617188,0 -1.414062,0.15625 -2.390625,0.46875 -0.96875,0.304688 -1.761719,0.605469 -2.375,0.90625 -1.460937,0.710938 -2.273437,1.398438 -2.4375,2.0625 v 7.359375 h -1.8125 C 1.035156,-0.878906 0.921875,-2.601562 0.921875,-5.4375 0.921875,-7.957031 0.96875,-9.8125 1.0625,-11 1.164062,-12.195312 1.242188,-12.878906 1.296875,-13.046875 1.765625,-13.347656 2.144531,-13.5 2.4375,-13.5 c 0.445312,0 0.671875,0.53125 0.671875,1.59375 0,0.417969 -0.027344,0.820312 -0.078125,1.203125 -0.042969,0.386719 -0.0625,0.652344 -0.0625,0.796875 2.925781,-2.144531 5.191406,-3.21875 6.796875,-3.21875 1.820313,0 2.859375,1.46875 3.109375,4.40625 0.113281,1.03125 0.171875,2.460938 0.171875,4.28125 l -0.03125,2.140625 c 0,0.792969 0.01563,1.558594 0.04687,2.296875 -0.179683,0.101562 -0.320307,0.15625 -0.42187,0.15625 C 12.578125,0.144531 12.457031,0.117188 12.28125,0.078125 12.101562,0.046875 11.867188,0.0195312 11.578125,0 11.398438,-0.71875 11.300781,-1.453125 11.28125,-2.203125 11.257812,-2.953125 11.25,-3.644531 11.25,-4.28125 Z m 0,0"
             id="path248"
             style="fill:#fefbea;fill-opacity:1" />
        </g>
      </g>
    </g>
    <g
       fill="#000000"
       fill-opacity="1"
       id="g268"
       style="fill:#fefbea;fill-opacity:1">
      <g
         transform="translate(230.37512,234.55979)"
         id="g266"
         style="fill:#fefbea;fill-opacity:1">
        <g
           id="g264"
           style="fill:#fefbea;fill-opacity:1">
          <path
             d="m 16.828125,-2.0625 c 0,0.511719 -0.398437,0.765625 -1.1875,0.765625 -0.523437,0 -1.199219,-0.242187 -2.03125,-0.734375 -0.3125,-0.175781 -0.625,-0.34375 -0.9375,-0.5 -0.3125,-0.15625 -0.65625,-0.234375 -1.03125,-0.234375 -0.5625,0.292969 -1.179687,0.621094 -1.84375,0.984375 -2.3125,1.21875 -4.34375,1.828125 -6.09375,1.828125 L 2.84375,0 C 2.820312,0 2.769531,0 2.6875,0 2.601562,0 2.410156,-0.0351562 2.109375,-0.109375 1.316406,-0.304688 0.722656,-0.585938 0.328125,-0.953125 c -0.125,-0.125 -0.1875,-0.242187 -0.1875,-0.359375 0,-0.113281 0.015625,-0.207031 0.046875,-0.28125 L 5.109375,-9.4375 c -0.792969,-1.375 -1.289063,-2.34375 -1.484375,-2.90625 -0.292969,-0.875 -0.4375,-1.910156 -0.4375,-3.109375 0.144531,-1.832031 0.757812,-3.351563 1.84375,-4.5625 0.84375,-0.925781 1.691406,-1.390625 2.546875,-1.390625 0.644531,0 1.140625,0.320312 1.484375,0.953125 0.238281,0.398437 0.359375,0.953125 0.359375,1.671875 0,2.117188 -0.996094,5.074219 -2.984375,8.875 0.050781,0.730469 0.898438,1.777344 2.546875,3.140625 0.789063,0.667969 1.460937,1.167969 2.015625,1.5 0.5625,0.324219 0.914062,0.484375 1.0625,0.484375 1.03125,-0.582031 1.734375,-1.0625 2.109375,-1.4375 0.382813,-0.382812 0.664063,-0.691406 0.84375,-0.921875 0.175781,-0.238281 0.375,-0.492187 0.59375,-0.765625 0.539063,-0.695312 1.191406,-1.398438 1.953125,-2.109375 0.175781,0 0.375,0.089844 0.59375,0.265625 0.21875,0.167969 0.316406,0.277344 0.296875,0.328125 -0.02344,0.042969 -0.105469,0.199219 -0.25,0.46875 -0.148437,0.273437 -0.40625,0.640625 -0.78125,1.109375 -0.96875,1.1875 -2.386719,2.460938 -4.25,3.8125 2.4375,1.210938 3.65625,1.867188 3.65625,1.96875 z m -14.65625,0.390625 c 0,0.324219 0.148437,0.484375 0.453125,0.484375 0.050781,0 0.289062,-0.00391 0.71875,-0.015625 0.425781,-0.00781 0.957031,-0.0625 1.59375,-0.15625 C 5.570312,-1.460938 6.191406,-1.613281 6.796875,-1.8125 7.816406,-2.15625 9.039062,-2.75 10.46875,-3.59375 l -4.484375,-4.5 c -0.4375,0.4375 -0.945313,1.089844 -1.515625,1.953125 -1.53125,2.242187 -2.296875,3.730469 -2.296875,4.46875 z m 3.375,-9.5625 c 0.832031,-0.46875 1.484375,-1.539063 1.953125,-3.21875 0.351562,-1.28125 0.53125,-2.566406 0.53125,-3.859375 l 0.03125,-0.703125 c 0,-0.320313 -0.078125,-0.53125 -0.234375,-0.625 -0.148437,-0.09375 -0.417969,-0.140625 -0.8125,-0.140625 -0.386719,0 -0.75,0.167969 -1.09375,0.5 -0.34375,0.335938 -0.621094,0.746094 -0.828125,1.234375 -0.40625,0.886719 -0.609375,1.980469 -0.609375,3.28125 0,1.292969 0.351563,2.46875 1.0625,3.53125 z m 0,0"
             id="path262"
             style="fill:#fefbea;fill-opacity:1" />
        </g>
      </g>
    </g>
    <g
       fill="#000000"
       fill-opacity="1"
       id="g282"
       style="fill:#fefbea;fill-opacity:1">
      <g
         transform="translate(260.02521,234.55979)"
         id="g280"
         style="fill:#fefbea;fill-opacity:1">
        <g
           id="g278"
           style="fill:#fefbea;fill-opacity:1">
          <path
             d="M 2.25,0.046875 1.03125,0 v -6.296875 c 0.082031,-1.351563 0.148438,-2.550781 0.203125,-3.59375 0.0625,-1.050781 0.164063,-1.957031 0.3125,-2.71875 0.144531,-0.757813 0.378906,-1.394531 0.703125,-1.90625 0.320312,-0.507813 0.804688,-0.921875 1.453125,-1.234375 1.175781,-0.570312 3.332031,-0.859375 6.46875,-0.859375 1.351563,0 2.5,0.132813 3.4375,0.390625 0.9375,0.261719 1.628906,0.511719 2.078125,0.75 1.03125,0.5 1.546875,1.203125 1.546875,2.109375 0,0.898437 -0.261719,1.710937 -0.78125,2.4375 -0.511719,0.730469 -1.179687,1.367187 -2,1.90625 -0.8125,0.53125 -1.734375,0.96875 -2.765625,1.3125 -1.03125,0.335937 -2.058594,0.609375 -3.078125,0.828125 -1.84375,0.367188 -3.617187,0.546875 -5.3125,0.546875 l -0.109375,6.0625 c 0,0.2109375 -0.3125,0.3125 -0.9375,0.3125 z m 1.03125,-9.4375 c 0,0.90625 0.382812,1.359375 1.15625,1.359375 0.101562,0 0.289062,-0.00391 0.5625,-0.015625 0.269531,-0.00781 0.742188,-0.035156 1.421875,-0.078125 0.675781,-0.050781 1.394531,-0.144531 2.15625,-0.28125 0.757813,-0.132812 1.519531,-0.304688 2.28125,-0.515625 0.769531,-0.21875 1.460937,-0.488281 2.078125,-0.8125 1.382812,-0.757813 2.078125,-1.726563 2.078125,-2.90625 -0.273437,-1.164063 -1.34375,-1.910156 -3.21875,-2.234375 -0.5625,-0.113281 -1.070313,-0.171875 -1.515625,-0.171875 -0.4375,0 -0.960938,0.02734 -1.5625,0.07813 -0.605469,0.04297 -1.304688,0.183594 -2.09375,0.421875 -0.792969,0.230469 -1.460938,0.542969 -2,0.9375 -0.542969,0.398437 -0.839844,0.855469 -0.890625,1.375 -0.023437,0.21875 -0.070313,0.476563 -0.140625,0.765625 -0.210938,0.917969 -0.3125,1.609375 -0.3125,2.078125 z m 0,0"
             id="path276"
             style="fill:#fefbea;fill-opacity:1" />
        </g>
      </g>
    </g>
    <g
       fill="#000000"
       fill-opacity="1"
       id="g290"
       style="fill:#fefbea;fill-opacity:1">
      <g
         transform="translate(277.69082,234.55979)"
         id="g288"
         style="fill:#fefbea;fill-opacity:1">
        <g
           id="g286"
           style="fill:#fefbea;fill-opacity:1">
          <path
             d="m 11.359375,-4.484375 c -1.355469,2.125 -3.15625,3.4375 -5.40625,3.9375 C 5.429688,-0.429688 4.957031,-0.375 4.53125,-0.375 c -0.429688,0 -0.78125,-0.003906 -1.0625,-0.015625 -0.273438,-0.007813 -0.578125,-0.050781 -0.921875,-0.125 -0.34375,-0.070313 -0.664063,-0.1875 -0.953125,-0.34375 -0.667969,-0.382813 -1,-0.921875 -1,-1.609375 -0.074219,-0.320312 -0.109375,-0.6875 -0.109375,-1.09375 0,-0.40625 0.085937,-0.941406 0.265625,-1.609375 0.1875,-0.664063 0.519531,-1.382813 1,-2.15625 0.476562,-0.78125 1.054688,-1.492187 1.734375,-2.140625 1.425781,-1.375 2.96875,-2.257812 4.625,-2.65625 0.488281,-0.101562 0.9375,-0.15625 1.34375,-0.15625 0.40625,0 0.769531,0.02734 1.09375,0.07813 1.050781,0 1.753906,0.714844 2.109375,2.140625 0.238281,0.898438 0.378906,2.152344 0.421875,3.765625 0.03906,1.617187 0.08203,2.859375 0.125,3.734375 0.05078,0.875 0.164063,1.679688 0.34375,2.40625 h -1.59375 c -0.07422,-0.488286 -0.132813,-0.92188 -0.171875,-1.29688 -0.03125,-0.382813 -0.0625,-0.738281 -0.09375,-1.0625 -0.09375,-0.757813 -0.203125,-1.414063 -0.328125,-1.96875 z M 11.25,-8.6875 c 0,-1.039062 -0.511719,-1.5625 -1.53125,-1.5625 -0.136719,-0.01953 -0.265625,-0.03125 -0.390625,-0.03125 -1.3125,0 -2.699219,0.632812 -4.15625,1.890625 -0.6875,0.585937 -1.277344,1.234375 -1.765625,1.953125 -0.71875,1.03125 -1.078125,1.953125 -1.078125,2.765625 0,1.0625 0.613281,1.695313 1.84375,1.890625 C 5.785156,-1.820312 7.332031,-2.5625 8.8125,-4 9.445312,-4.632812 9.972656,-5.320312 10.390625,-6.0625 10.960938,-7.050781 11.25,-7.925781 11.25,-8.6875 Z m 0,0"
             id="path284"
             style="fill:#fefbea;fill-opacity:1" />
        </g>
      </g>
    </g>
    <g
       fill="#000000"
       fill-opacity="1"
       id="g298"
       style="fill:#fefbea;fill-opacity:1">
      <g
         transform="translate(291.78543,234.55979)"
         id="g296"
         style="fill:#fefbea;fill-opacity:1">
        <g
           id="g294"
           style="fill:#fefbea;fill-opacity:1">
          <path
             d="M 3.328125,-10.84375 C 5.773438,-11.695312 7.894531,-12.125 9.6875,-12.125 c 2.269531,0 3.785156,0.601562 4.546875,1.796875 0.34375,0.554687 0.515625,1.15625 0.515625,1.8125 0,0.898437 -0.289062,1.824219 -0.859375,2.78125 -0.5625,0.960937 -1.3125,1.824219 -2.25,2.59375 -2.1875,1.792969 -4.84375,2.902344 -7.96875,3.328125 0,0.195312 0.00391,0.515625 0.015625,0.953125 C 3.69531,1.585938 3.707031,2.082031 3.71875,2.625 3.72656,3.164062 3.738281,3.742188 3.75,4.359375 c 0.00781,0.613281 0.019531,1.195313 0.03125,1.75 0.0625,1.394531 0.101562,2.191406 0.125,2.390625 0.03125,0.195312 0.046875,0.359375 0.046875,0.484375 0,0.445313 -0.148437,0.78125 -0.4375,1 -0.292969,0.226563 -0.671875,0.34375 -1.140625,0.34375 -0.085938,0 -0.171875,0 -0.265625,0 l -0.4375,-21.75 c 0.164063,-0.226563 0.382813,-0.332031 0.65625,-0.3125 0.269531,0.01172 0.484375,0.08594 0.640625,0.21875 0.164062,0.125 0.285156,0.351563 0.359375,0.671875 z m 7.90625,0.9375 c -0.605469,-0.300781 -1.246094,-0.453125 -1.921875,-0.453125 -0.667969,0 -1.339844,0.0625 -2.015625,0.1875 -1.511719,0.292969 -2.625,0.933594 -3.34375,1.921875 -0.324219,0.46875 -0.484375,1.046875 -0.484375,1.734375 0,0.074219 0,0.148437 0,0.21875 V -1.625 c 3.707031,-0.832031 6.335938,-1.988281 7.890625,-3.46875 0.90625,-0.84375 1.359375,-1.710938 1.359375,-2.609375 0,-0.957031 -0.496094,-1.691406 -1.484375,-2.203125 z m 0,0"
             id="path292"
             style="fill:#fefbea;fill-opacity:1" />
        </g>
      </g>
    </g>
    <g
       fill="#000000"
       fill-opacity="1"
       id="g306"
       style="fill:#fefbea;fill-opacity:1">
      <g
         transform="translate(307.20564,234.55979)"
         id="g304"
         style="fill:#fefbea;fill-opacity:1">
        <g
           id="g302"
           style="fill:#fefbea;fill-opacity:1">
          <path
             d="m 6.25,-1.890625 c 1.582031,0 3.972656,-0.722656 7.171875,-2.171875 0.195313,0 0.359375,0.070312 0.484375,0.203125 0.125,0.136719 0.1875,0.296875 0.1875,0.484375 C 13.375,-2.15625 11.992188,-1.203125 9.953125,-0.515625 7.921875,0.171875 6.019531,0.289062 4.25,-0.15625 2.25,-0.6875 1.03125,-1.816406 0.59375,-3.546875 c -0.03125,-0.34375 -0.046875,-0.800781 -0.046875,-1.375 0,-0.582031 0.144531,-1.34375 0.4375,-2.28125 0.300781,-0.945313 0.8125,-1.84375 1.53125,-2.6875 0.71875,-0.851563 1.5625,-1.523437 2.53125,-2.015625 0.976563,-0.488281 2.019531,-0.734375 3.125,-0.734375 1.039063,0 2.210937,0.367187 3.515625,1.09375 0.613281,0.34375 1.097656,0.734375 1.453125,1.171875 0.363281,0.429688 0.546875,0.867188 0.546875,1.3125 0,0.125 -0.01172,0.25 -0.03125,0.375 -0.03125,1.105469 -0.5625,1.804688 -1.59375,2.09375 -0.449219,0.125 -0.96875,0.1875 -1.5625,0.1875 L 6.59375,-6.578125 c -1.292969,0 -2.28125,0.28125 -2.96875,0.84375 -0.398438,0.304687 -0.679688,0.761719 -0.84375,1.375 0.457031,1.648437 1.613281,2.46875 3.46875,2.46875 z M 11.078125,-10.25 C 10.671875,-10.539062 10.25,-10.75 9.8125,-10.875 9.382812,-11 9.023438,-11.0625 8.734375,-11.0625 c -0.28125,0 -0.75,0.09375 -1.40625,0.28125 -0.648437,0.1875 -1.226563,0.402344 -1.734375,0.640625 -1.242188,0.574219 -1.859375,1.179687 -1.859375,1.8125 1.4375,0.125 2.519531,0.1875 3.25,0.1875 2,0 3.347656,-0.171875 4.046875,-0.515625 0.4375,-0.175781 0.65625,-0.398438 0.65625,-0.671875 0,-0.332031 -0.203125,-0.640625 -0.609375,-0.921875 z m 0,0"
             id="path300"
             style="fill:#fefbea;fill-opacity:1" />
        </g>
      </g>
    </g>
    <g
       fill="#000000"
       fill-opacity="1"
       id="g314"
       style="fill:#fefbea;fill-opacity:1">
      <g
         transform="translate(322.193,234.55979)"
         id="g312"
         style="fill:#fefbea;fill-opacity:1">
        <g
           id="g310"
           style="fill:#fefbea;fill-opacity:1">
          <path
             d="m 14.015625,-9.875 c -0.761719,-0.539062 -1.734375,-0.8125 -2.921875,-0.8125 -1.117188,0 -2.152344,0.210938 -3.109375,0.625 -1.804687,0.761719 -3.039063,1.734375 -3.703125,2.921875 -0.292969,0.542969 -0.4375,1.121094 -0.4375,1.734375 0,0.105469 0,0.40625 0,0.90625 0,0.492188 0.085938,1.15625 0.265625,2 C 4.285156,-1.664062 4.375,-0.816406 4.375,0.046875 4,0.0664062 3.691406,0.113281 3.453125,0.1875 3.222656,0.257812 3.023438,0.296875 2.859375,0.296875 2.703125,0.296875 2.5625,0.222656 2.4375,0.078125 2.320312,-0.0664062 2.195312,-0.34375 2.0625,-0.75 2.039062,-0.863281 2,-1.171875 1.9375,-1.671875 1.882812,-2.179688 1.816406,-2.796875 1.734375,-3.515625 1.660156,-4.234375 1.570312,-5.019531 1.46875,-5.875 1.375,-6.738281 1.28125,-7.582031 1.1875,-8.40625 c -0.199219,-1.8125 -0.351562,-3.140625 -0.453125,-3.984375 0,-0.4375 0.3125,-0.65625 0.9375,-0.65625 0.382813,0 0.679687,0.164063 0.890625,0.484375 0.21875,0.3125 0.390625,0.671875 0.515625,1.078125 0.132813,0.40625 0.222656,0.808594 0.265625,1.203125 0.039062,0.398438 0.082031,0.679688 0.125,0.84375 2.375,-2.132812 5.332031,-3.203125 8.875,-3.203125 0.394531,0 0.804688,0.01172 1.234375,0.03125 0.113281,-0.01953 0.25,-0.03125 0.40625,-0.03125 0.164063,0 0.328125,0.109375 0.484375,0.328125 0.195312,0.25 0.296875,0.558594 0.296875,0.921875 0,0.90625 -0.25,1.414063 -0.75,1.515625 z m 0,0"
             id="path308"
             style="fill:#fefbea;fill-opacity:1" />
        </g>
      </g>
    </g>
  </g>
</svg>
